<?xml version="1.0" standalone="no"?>
<!DOCTYPE svg PUBLIC "-//W3C//DTD SVG 20010904//EN"
 "http://www.w3.org/TR/2001/REC-SVG-20010904/DTD/svg10.dtd">
<svg version="1.0" xmlns="http://www.w3.org/2000/svg"
 width="735.000000pt" height="726.000000pt" viewBox="0 0 735.000000 726.000000"
 preserveAspectRatio="xMidYMid meet">

<g transform="translate(0.000000,726.000000) scale(0.100000,-0.100000)"
fill="#000000" stroke="none">
<path d="M0 5097 l0 -2163 43 1 c165 0 677 -56 772 -85 17 -5 89 -23 160 -40
192 -46 556 -166 670 -221 55 -26 117 -54 138 -63 20 -8 40 -22 43 -31 3 -8
-11 -88 -32 -176 l-39 -162 -672 4 -672 4 -22 -22 c-37 -37 -41 -31 319 -648
210 -360 322 -555 322 -561 0 -10 -58 5 -88 23 -18 11 -51 21 -72 21 -22 0
-49 6 -60 12 -12 6 -28 9 -36 6 -8 -3 -14 -1 -14 3 0 5 -23 8 -52 7 -29 -2
-73 3 -99 9 -27 7 -50 10 -53 7 -3 -3 -6 0 -6 6 0 7 -6 12 -14 12 -8 0 -22 9
-30 21 -8 12 -19 18 -25 14 -6 -3 -11 -1 -11 6 0 22 -126 217 -155 240 -11 9
-33 40 -50 68 -16 28 -36 51 -42 51 -7 0 -13 4 -13 9 0 5 -17 27 -38 49 -97
106 -112 123 -112 136 0 8 -11 23 -23 33 -13 10 -26 25 -30 33 -3 8 -6 -371
-6 -842 l-1 -858 3245 0 c1785 0 3245 3 3245 7 0 4 -16 40 -36 80 -36 75 -44
96 -70 192 -8 30 -20 61 -26 69 -14 16 -34 50 -44 72 -36 86 -95 145 -154 155
-19 3 -47 15 -62 25 -15 11 -33 20 -41 20 -7 0 -17 4 -22 9 -6 5 -37 16 -70
26 -33 9 -65 23 -72 32 -10 13 -15 14 -28 3 -8 -7 -12 -16 -9 -21 8 -14 0 -11
-47 16 -32 18 -45 21 -51 12 -7 -11 -10 -6 -7 19 0 3 -17 15 -38 27 -28 15
-62 22 -128 25 -79 4 -104 0 -200 -27 -168 -49 -312 -137 -392 -241 -36 -46
-74 -70 -113 -70 -10 0 -68 -15 -129 -34 -112 -35 -153 -38 -130 -10 6 8 26
14 43 14 17 1 49 8 71 16 22 9 50 18 63 21 13 3 26 12 29 19 3 8 9 11 14 8 5
-3 9 11 9 31 0 20 11 57 25 83 l25 47 -21 18 c-24 19 -50 22 -65 7 -10 -10
-148 -52 -224 -69 -19 -5 -49 -17 -67 -27 -32 -19 -32 -19 -57 5 -14 14 -26
32 -26 42 0 30 15 37 200 93 120 36 240 115 240 158 0 13 -8 18 -29 18 -38 0
-227 -47 -264 -66 -22 -12 -44 -14 -88 -9 -49 6 -70 3 -117 -15 -31 -12 -64
-26 -72 -31 -55 -34 -59 -34 -96 2 -20 19 -42 46 -50 61 -12 23 -12 29 1 42 8
8 23 17 33 20 53 15 276 67 329 76 104 18 143 39 157 87 6 19 1 22 -44 32 -28
6 -52 11 -54 11 -2 0 -16 -11 -32 -25 -16 -14 -34 -25 -41 -25 -7 0 -17 -9
-23 -20 -6 -11 -16 -20 -23 -19 -8 0 -8 2 1 6 9 3 1 14 -22 29 -20 14 -36 31
-36 39 0 11 -12 15 -41 15 -32 0 -42 4 -46 19 -8 29 -35 35 -54 12 -11 -13
-25 -19 -44 -17 -27 3 -27 3 -21 -37 4 -23 5 -39 3 -37 -12 14 -117 252 -117
265 0 24 44 29 81 8 28 -15 58 -18 169 -19 168 -1 341 -19 380 -39 41 -21 59
-52 70 -121 6 -33 10 -62 10 -66 0 -3 20 -18 45 -32 24 -15 48 -33 53 -42 7
-13 17 -13 88 6 43 11 95 27 114 34 19 8 61 21 92 30 32 9 64 23 72 31 8 8 22
15 31 15 37 0 155 91 155 120 0 6 11 10 25 10 16 0 25 6 25 15 0 9 6 15 13 13
15 -3 110 41 119 56 4 6 42 11 95 11 117 0 174 -26 197 -88 14 -37 70 -261 93
-372 8 -39 11 -40 63 -52 92 -21 153 -44 200 -76 90 -62 127 -116 182 -267 20
-56 25 -71 48 -125 26 -64 90 -264 90 -283 0 -54 -18 -52 381 -52 l369 0 0
1213 c0 666 -3 1222 -6 1235 -10 37 -20 25 -20 -25 1 -33 -3 -47 -11 -45 -8 1
-13 -8 -13 -23 0 -29 -27 -75 -44 -75 -6 0 -11 18 -11 45 0 28 2 39 8 30 13
-24 39 -18 35 7 -2 14 -10 23 -20 23 -25 0 -28 7 -17 50 10 40 12 64 10 98 -1
14 -6 17 -21 12 -22 -7 -28 13 -8 33 8 8 8 15 -1 26 -10 12 -11 23 -2 47 16
47 14 89 -4 89 -9 0 -15 -6 -14 -12 3 -27 -1 -39 -13 -32 -6 4 -8 3 -4 -4 3
-6 -1 -18 -10 -27 -21 -20 -33 -5 -26 31 4 22 3 23 -24 13 -45 -16 -65 -35
-68 -66 -3 -23 -8 -27 -27 -25 -28 3 -39 18 -39 54 0 21 -6 29 -25 34 -13 3
-27 15 -30 25 -5 16 -14 19 -43 16 -20 -3 -44 -8 -53 -11 -10 -4 -20 -3 -24 3
-11 19 -25 12 -25 -14 0 -14 -6 -25 -13 -25 -8 0 -19 -11 -25 -25 -13 -29 -48
-36 -37 -7 17 43 18 82 1 88 -10 4 -16 18 -16 38 0 25 2 28 11 16 17 -24 1 40
-17 68 -12 18 -23 22 -46 20 -28 -3 -33 -9 -47 -54 -9 -28 -22 -59 -30 -68 -8
-9 -16 -33 -18 -53 -2 -21 -10 -44 -17 -53 -8 -8 -16 -24 -18 -35 -7 -40 -23
-14 -26 44 -3 66 -26 92 -39 43 -3 -14 -15 -41 -26 -59 -10 -19 -23 -48 -27
-66 -13 -57 -15 -62 -20 -67 -11 -11 -38 -67 -44 -91 -4 -21 -13 -28 -38 -32
-44 -6 -49 -2 -42 41 3 20 8 66 10 102 5 60 4 64 -11 45 -8 -11 -18 -36 -22
-57 -6 -39 -23 -53 -23 -20 0 11 -9 27 -20 37 -11 10 -20 26 -20 36 0 9 -6 19
-12 21 -9 3 -14 42 -16 136 -2 73 -8 132 -13 132 -5 0 -9 -6 -9 -14 0 -7 -9
-25 -20 -39 -11 -14 -20 -36 -20 -49 0 -22 -40 -94 -40 -73 0 6 -9 -1 -20 -15
l-20 -25 -1 25 c-1 15 -3 19 -6 9 -2 -10 -14 -20 -26 -23 -31 -8 -37 -7 -37 5
0 17 -27 39 -49 39 -12 0 -21 6 -21 15 0 20 -20 18 -48 -5 l-22 -19 24 -103
c28 -116 102 -378 146 -513 16 -49 48 -151 71 -225 23 -74 45 -139 49 -145 11
-15 80 -239 80 -259 0 -12 -6 -15 -22 -11 -13 3 -40 7 -60 9 -36 3 -74 23 -64
34 3 2 -1 19 -8 36 -6 17 -18 57 -26 89 -7 31 -15 55 -18 53 -2 -3 3 -37 12
-77 9 -39 15 -74 12 -76 -5 -5 -21 49 -41 137 -9 39 -13 47 -14 26 -1 -34 -6
-32 -15 6 -6 25 -3 28 33 38 21 5 45 18 52 27 8 9 9 14 3 10 -14 -8 -34 35
-34 74 0 20 -4 28 -11 23 -8 -4 -9 1 -4 15 4 12 2 28 -5 36 -12 15 -41 118
-41 147 0 10 -4 20 -9 23 -4 3 -6 14 -3 25 3 11 1 20 -4 20 -10 0 -34 65 -40
105 -10 71 -16 95 -25 95 -5 0 -8 8 -7 18 3 18 -20 101 -32 117 -4 6 -15 44
-24 85 -9 41 -23 89 -31 107 -8 17 -14 38 -14 47 0 9 -4 24 -10 34 -5 9 -16
42 -24 72 -8 30 -25 87 -39 125 -13 39 -38 113 -55 165 -26 83 -51 124 -66
110 -4 -4 -17 -110 -19 -150 0 -8 3 -64 6 -124 4 -61 2 -152 -4 -205 -6 -53
-12 -118 -14 -146 -1 -27 -6 -58 -10 -68 -4 -9 -5 -26 -2 -37 3 -11 1 -20 -4
-20 -5 0 -9 13 -9 28 0 15 -5 33 -10 38 -6 6 -12 28 -14 50 -3 21 -9 64 -14
94 -5 30 -10 112 -11 183 0 70 -6 157 -12 195 -14 89 -15 94 -23 113 -4 9 -6
20 -5 25 1 5 0 16 -4 24 -3 8 -19 65 -36 127 -34 125 -77 198 -122 205 -20 3
-31 -4 -54 -34 l-29 -38 -13 42 c-6 23 -9 47 -5 53 9 12 8 34 -2 56 -9 22
-167 61 -269 68 -5 1 -7 7 -4 14 5 16 -79 36 -155 37 -31 0 -68 4 -82 10 -51
19 -55 10 -130 -245 -47 -157 -75 -240 -75 -220 -1 6 8 37 18 70 39 125 35
302 -8 325 -18 9 -46 -10 -74 -50 -10 -14 -21 -25 -26 -25 -5 0 -26 -17 -46
-37 -20 -21 -42 -38 -49 -38 -14 0 -29 27 -46 85 -7 22 -19 55 -28 73 -11 25
-12 38 -4 55 24 49 85 304 79 332 -2 11 -8 28 -12 38 -16 38 26 14 87 -50 102
-107 130 -132 188 -165 30 -17 64 -39 75 -48 14 -12 44 -19 95 -22 50 -3 136
-23 255 -58 l180 -52 170 12 c179 13 240 13 1050 10 449 -2 742 6 968 26 l67
6 0 1744 0 1744 -3675 0 -3675 0 0 -2163z m4239 1790 c18 -49 22 -79 10 -75
-10 3 -38 77 -39 101 0 15 21 -5 29 -26z m82 -142 c10 -27 20 -69 23 -93 4
-52 12 -61 31 -36 14 18 15 17 9 -9 -5 -21 -3 -28 7 -27 48 7 100 -29 79 -55
-15 -18 15 -28 43 -13 21 11 21 10 6 -13 -9 -13 -26 -25 -38 -27 -11 -2 -21
-10 -21 -18 0 -19 -15 -18 -106 11 -89 28 -94 29 -94 15 0 -5 9 -10 19 -10 11
0 23 -4 26 -10 3 -5 1 -10 -5 -10 -6 0 -8 -4 -5 -10 8 -14 -1 -13 -25 3 -17
10 -22 9 -29 -1 -6 -10 -10 -9 -14 7 -3 12 -12 21 -20 21 -8 0 -27 6 -41 14
-21 10 -23 15 -11 19 8 4 15 14 15 22 0 9 -4 13 -10 10 -5 -3 -10 -1 -10 5 0
7 -6 10 -14 7 -18 -7 -98 23 -109 40 -10 17 -31 17 -21 1 4 -7 5 -11 1 -8 -3
3 -7 10 -8 15 -2 6 -24 20 -48 31 l-44 22 54 -2 c56 -2 107 -24 187 -78 23
-16 40 -33 37 -39 -4 -5 -1 -9 4 -9 6 0 11 4 11 10 0 5 17 12 38 15 59 10 69
15 53 24 -10 7 -10 9 1 13 20 8 21 66 2 106 -9 19 -19 53 -22 74 -4 34 -2 40
13 37 10 -3 25 -24 36 -54z m-261 -26 c51 -11 68 -29 28 -29 -19 0 -20 -2 -8
-10 13 -9 13 -11 0 -20 -20 -13 -17 -14 -85 23 -42 22 -61 39 -63 54 -2 15
-13 25 -28 29 -13 3 -24 10 -24 14 0 5 29 -5 65 -21 36 -16 88 -34 115 -40z
m580 -48 c13 -38 27 -68 32 -65 11 7 28 -31 28 -64 0 -50 -11 -90 -32 -112
-11 -11 -17 -27 -15 -34 7 -17 -12 -36 -34 -36 -9 0 -22 -7 -29 -15 -23 -28
-30 -15 -10 18 38 64 66 197 41 197 -4 0 -11 33 -15 73 -3 39 -9 86 -13 102
-12 57 22 10 47 -64z m-625 -123 c14 -6 25 -15 25 -19 0 -4 9 -5 20 -2 12 3
20 0 20 -6 0 -7 -4 -9 -10 -6 -16 10 -12 -7 8 -29 13 -16 -44 25 -92 66 -14
11 -1 10 29 -4z m102 -34 c-3 -3 -12 -4 -19 -1 -8 3 -5 6 6 6 11 1 17 -2 13
-5z m-2769 -30 c9 -5 -30 -64 -43 -64 -23 0 -28 37 -8 64 14 19 21 22 33 13 8
-6 16 -12 18 -13z m2879 -101 c-17 -18 -22 -8 -11 22 5 12 10 13 17 6 8 -8 6
-16 -6 -28z m479 -14 c-7 -37 -37 -102 -44 -95 -7 8 31 126 41 126 5 0 7 -14
3 -31z m-441 -53 c17 -13 18 -15 3 -16 -9 0 -20 5 -23 10 -3 6 -14 10 -25 10
-20 0 -35 27 -17 33 6 2 18 -2 27 -10 8 -7 24 -19 35 -27z m-1 35 c3 -4 20
-11 37 -15 18 -3 30 -9 27 -12 -8 -8 -88 17 -88 28 0 11 17 10 24 -1z m370
-43 c-10 -31 -16 -68 -15 -96 1 -13 -6 -39 -14 -59 -19 -44 -19 -43 3 -43 9 0
24 -5 32 -11 13 -9 12 -10 -2 -5 -10 3 -18 1 -18 -3 0 -15 24 -19 35 -5 15 19
105 23 105 4 0 -5 -3 -9 -7 -8 -8 1 -24 -4 -71 -23 -13 -5 -26 -18 -29 -29 -4
-15 -9 -17 -23 -10 -10 6 -28 10 -39 10 -12 0 -21 6 -21 13 -1 6 -8 0 -16 -15
-8 -16 -20 -28 -26 -28 -9 0 -9 3 0 12 20 20 15 40 -7 28 -11 -5 -26 -10 -33
-9 -7 0 -3 5 10 11 32 16 27 30 -9 24 -20 -3 -37 1 -46 10 -8 8 -20 14 -26 14
-7 0 -6 -4 3 -10 9 -6 10 -10 3 -10 -22 0 -43 12 -43 25 0 7 -15 16 -32 20
-29 7 -30 9 -10 12 12 3 22 7 22 11 -1 4 -19 27 -40 52 -22 25 -36 46 -30 48
5 2 2 15 -7 29 -17 26 -17 26 5 14 13 -7 26 -19 28 -26 7 -18 69 -38 100 -32
19 3 22 2 13 -9 -9 -11 -8 -14 0 -14 7 0 10 -4 7 -9 -3 -5 -24 -7 -46 -4 -34
5 -39 3 -34 -10 8 -21 48 -47 73 -47 24 0 94 69 87 86 -3 7 6 24 19 38 13 14
29 34 34 43 9 16 10 15 11 -5 0 -28 23 -25 29 4 3 16 18 33 29 34 2 0 0 -10
-4 -22z m56 -298 c0 -5 -4 -10 -9 -10 -6 0 -13 5 -16 10 -3 6 1 10 9 10 9 0
16 -4 16 -10z m54 -22 c-16 -18 -33 -36 -39 -41 -6 -4 -1 -15 14 -28 l24 -20
-23 -31 c-13 -17 -23 -43 -24 -58 -1 -30 -22 -60 -41 -60 -8 0 -14 16 -17 40
-2 22 -1 40 3 40 10 0 30 51 23 61 -3 6 0 17 7 25 10 13 10 17 -1 24 -19 11 1
35 49 60 53 26 58 24 25 -12z m-230 -40 l-19 -20 36 15 36 15 -5 -27 c-3 -14
-7 -20 -9 -13 -7 18 -22 15 -59 -13 -31 -24 -41 -24 -40 0 1 17 70 87 74 75 2
-6 -4 -20 -14 -32z m-79 -48 c-3 -5 -11 -10 -16 -10 -6 0 -7 5 -4 10 3 6 11
10 16 10 6 0 7 -4 4 -10z m-153 -145 c11 -14 42 -37 68 -50 27 -14 52 -30 55
-36 6 -8 2 -8 -13 0 -32 17 -55 14 -47 -6 7 -19 12 -39 21 -93 l6 -35 -51 53
c-28 28 -54 52 -58 53 -52 4 -75 8 -80 13 -4 3 1 6 9 6 18 0 29 32 17 51 -5 9
1 23 18 41 15 16 29 28 31 28 2 0 13 -11 24 -25z m-172 -100 c80 -15 96 -21
97 -36 1 -11 -4 -19 -12 -19 -7 0 -15 -5 -17 -12 -5 -15 -84 6 -110 29 -10 9
-39 26 -65 39 -54 27 -55 27 107 -1z m-997 -132 c-7 -2 -21 -2 -30 0 -10 3 -4
5 12 5 17 0 24 -2 18 -5z m1257 -14 c8 -15 8 -24 0 -34 -7 -8 -9 -19 -6 -24
11 -17 36 -321 36 -441 l1 -115 30 35 c39 47 49 86 49 207 0 83 3 101 14 97
19 -7 56 -99 56 -140 0 -26 3 -32 16 -27 8 3 13 12 10 19 -3 8 -1 14 4 14 6 0
10 41 10 98 0 93 -16 168 -42 199 -6 7 -8 20 -4 28 10 26 43 -3 68 -60 20 -44
23 -66 23 -180 0 -151 -17 -220 -90 -370 -61 -123 -106 -168 -180 -179 -14 -2
-27 -29 -55 -113 -53 -160 -129 -300 -231 -424 l-38 -45 26 -55 c39 -83 34
-124 -31 -255 -30 -60 -67 -122 -82 -138 l-28 -27 -28 73 c-15 40 -28 78 -28
85 0 16 -39 91 -52 99 -5 4 9 26 33 50 30 31 38 44 26 44 -10 0 -14 5 -11 15
4 8 -1 17 -10 21 -9 3 -16 17 -16 29 0 13 -5 27 -11 31 -11 6 -10 27 8 146 6
47 -14 95 -45 103 -12 3 -20 9 -17 14 9 15 155 43 183 36 61 -16 71 -15 99 9
24 21 28 32 28 77 0 34 -5 54 -13 57 -7 2 -17 15 -22 28 -6 16 -14 22 -25 18
-10 -4 -14 -13 -10 -22 3 -8 2 -18 -2 -21 -4 -3 -16 -23 -25 -43 -10 -20 -29
-45 -43 -54 -23 -15 -30 -15 -83 -1 -31 9 -90 17 -130 18 l-73 2 40 38 c41 38
50 64 32 98 -10 19 5 101 19 101 4 0 10 7 14 15 3 8 2 14 -2 14 -18 -3 -31 3
-56 26 -29 27 -56 31 -88 14 -20 -11 -20 -11 -2 19 13 22 15 34 7 44 -7 9 -7
34 -1 78 5 36 11 90 13 120 10 155 24 192 63 171 10 -5 33 -36 50 -68 17 -32
44 -71 61 -87 28 -27 32 -28 103 -23 180 13 257 58 151 88 -27 7 -40 15 -30
17 9 2 17 8 17 13 0 5 15 9 33 9 41 1 60 16 75 59 18 50 15 82 -10 108 -16 17
-19 26 -10 35 8 8 15 8 25 -1 19 -15 50 -117 43 -139 -4 -14 -3 -13 7 2 7 10
20 26 30 35 22 20 23 110 2 152 -9 16 -13 35 -9 41 4 6 3 8 -3 5 -13 -8 -25
47 -18 81 5 30 30 53 49 46 9 -4 16 -1 16 6 0 7 6 10 13 7 47 -17 57 -18 57
-3 0 22 7 20 20 -5z m-211 -174 c16 -8 32 -22 35 -32 6 -14 2 -13 -17 5 -13
12 -28 22 -35 22 -6 0 -14 5 -17 10 -9 14 1 13 34 -5z m-192 -140 c15 -25 17
-48 2 -39 -8 4 -9 -1 -4 -16 6 -20 4 -21 -16 -15 -26 9 -50 35 -43 47 9 14 22
9 28 -9 3 -10 3 -1 0 20 -6 41 11 48 33 12z m-889 -89 c1 -34 4 -76 6 -95 l5
-34 -73 5 c-111 7 -149 43 -116 108 23 45 84 80 136 78 l40 -1 2 -61z m32 44
c0 -5 -7 -10 -16 -10 -8 0 -12 5 -9 10 3 6 10 10 16 10 5 0 9 -4 9 -10z m915
-50 c3 -5 1 -10 -4 -10 -6 0 -11 5 -11 10 0 6 2 10 4 10 3 0 8 -4 11 -10z
m402 -112 c-3 -8 -6 -5 -6 6 -1 11 2 17 5 13 3 -3 4 -12 1 -19z m-1557 -63 c0
-8 -4 -15 -10 -15 -5 0 -10 7 -10 15 0 8 5 15 10 15 6 0 10 -7 10 -15z m70
-43 c36 -44 41 -62 25 -78 -18 -19 -19 -22 -2 -20 6 0 12 -3 12 -9 0 -5 -6 -9
-13 -8 -9 1 -12 -6 -9 -17 4 -14 1 -17 -12 -13 -9 4 -20 13 -24 20 -6 9 -13
11 -20 5 -14 -12 -33 5 -32 28 1 8 -6 23 -14 33 -14 16 -13 18 7 24 12 3 22 9
22 13 0 5 -9 6 -20 3 -11 -3 -20 -1 -20 4 0 34 76 45 100 15z m-605 -39 c-4
-10 -10 -45 -14 -78 l-7 -60 -13 38 c-13 38 -9 81 11 104 16 19 31 16 23 -4z
m805 -1245 c28 -97 114 -234 181 -292 54 -46 126 -69 209 -68 120 2 174 28
293 141 44 41 56 49 49 31 -32 -83 -98 -229 -113 -251 -23 -33 -97 -65 -174
-75 -58 -7 -59 -8 -25 -15 19 -5 54 -8 78 -7 23 1 44 -1 47 -4 3 -3 -12 -43
-34 -90 -85 -184 -102 -291 -94 -593 l6 -225 -115 0 c-145 0 -177 6 -182 34
-3 11 -9 86 -15 166 -5 80 -17 199 -25 265 -8 66 -20 181 -25 256 -8 104 -16
153 -37 210 -15 41 -39 136 -55 211 -27 134 -27 140 -14 235 8 54 15 101 15
106 1 22 19 1 30 -35z m1995 -171 c-3 -12 -10 -45 -14 -72 -8 -43 -9 -45 -10
-15 -1 49 10 110 20 110 5 0 7 -10 4 -23z m-1085 -167 c8 -5 12 -11 9 -14 -3
-3 -14 1 -25 9 -21 16 -8 20 16 5z m-147 -67 c-3 -9 -9 -11 -15 -5 -5 5 -6 17
-2 26 5 13 9 14 14 5 5 -7 6 -19 3 -26z m-2232 -268 c-5 -5 -11 -32 -14 -58
-4 -46 -38 -96 -59 -89 -5 1 -7 -2 -5 -7 1 -5 -2 -8 -8 -7 -14 2 -10 99 4 104
6 2 11 8 11 13 0 5 9 18 20 29 11 11 20 27 20 35 0 13 3 13 19 3 12 -7 17 -16
12 -23z m-58 -199 c-21 -28 -24 -28 -16 2 3 12 12 22 20 22 11 0 10 -5 -4 -24z
m4902 -165 c-9 -16 -25 -3 -18 15 4 10 9 12 15 6 6 -6 7 -15 3 -21z m715 -71
c0 -5 -4 -10 -10 -10 -5 0 -10 5 -10 10 0 6 5 10 10 10 6 0 10 -4 10 -10z
m-1705 -80 c3 -5 -1 -10 -9 -10 -8 0 -18 5 -21 10 -3 6 1 10 9 10 8 0 18 -4
21 -10z m770 -30 c3 -5 1 -10 -4 -10 -6 0 -11 5 -11 10 0 6 2 10 4 10 3 0 8
-4 11 -10z m975 -134 c0 -3 -4 -8 -10 -11 -5 -3 -10 -1 -10 4 0 6 5 11 10 11
6 0 10 -2 10 -4z m-3511 -75 c15 -15 19 -33 19 -73 -1 -29 2 -64 6 -77 6 -16
-16 1 -67 50 -41 41 -69 76 -63 78 6 2 22 12 35 22 30 24 46 24 70 0z m-771
-12 c-2 -6 -8 -10 -13 -10 -5 0 -11 4 -13 10 -2 6 4 11 13 11 9 0 15 -5 13
-11z m2782 -477 c0 -5 3 -25 6 -43 4 -26 3 -30 -5 -19 -6 8 -11 26 -12 40 -1
20 -3 17 -13 -15 -12 -36 -14 -38 -24 -20 -10 18 -12 16 -12 -15 -1 -34 -2
-34 -17 15 -13 42 -17 47 -24 30 -4 -11 -8 -17 -8 -13 -1 3 -4 13 -7 21 -6 17
7 22 74 25 23 2 42 -1 42 -6z m54 -8 c3 -8 2 -12 -4 -9 -6 3 -10 10 -10 16 0
14 7 11 14 -7z m91 7 c3 -5 1 -12 -5 -16 -5 -3 -10 1 -10 9 0 18 6 21 15 7z
m-118 -43 c-3 -7 -5 -2 -5 12 0 14 2 19 5 13 2 -7 2 -19 0 -25z m150 -20 c-3
-8 -6 -5 -6 6 -1 11 2 17 5 13 3 -3 4 -12 1 -19z m-184 -28 c3 -11 1 -18 -4
-14 -5 3 -9 12 -9 20 0 20 7 17 13 -6z m-26 -12 c-3 -8 -6 -5 -6 6 -1 11 2 17
5 13 3 -3 4 -12 1 -19z m-3380 -354 c43 -22 48 -32 28 -58 -13 -18 -16 -18
-55 -2 -37 15 -44 15 -70 1 -32 -17 -39 -45 -16 -64 12 -10 15 -7 18 16 2 17
10 29 21 31 30 6 67 -7 67 -23 0 -19 46 -49 61 -40 7 5 9 24 6 51 -2 24 -1 44
4 44 20 0 60 -79 57 -111 -9 -95 -179 -66 -268 46 -45 56 -37 105 20 128 24
10 86 0 127 -19z m3058 -33 c7 -12 -12 -24 -25 -16 -11 7 -4 25 10 25 5 0 11
-4 15 -9z"/>
<path d="M4185 6500 c3 -5 17 -10 31 -10 14 0 22 4 19 10 -3 6 -17 10 -31 10
-14 0 -22 -4 -19 -10z"/>
<path d="M3762 4618 c-14 -14 -16 -38 -3 -38 23 0 41 14 41 31 0 21 -20 25
-38 7z"/>
<path d="M5540 3265 c0 -9 9 -15 25 -15 28 0 34 15 9 24 -25 10 -34 7 -34 -9z"/>
<path d="M5490 3260 c-12 -8 -11 -10 8 -10 12 0 22 5 22 10 0 13 -11 13 -30 0z"/>
</g>
</svg>
